<mxfile host="app.diagrams.net" modified="2023-03-29T06:57:13.810Z" agent="Mozilla/5.0 (X11; Ubuntu; Linux x86_64; rv:109.0) Gecko/20100101 Firefox/110.0" etag="IdcGDXSWgpEM4Aov6lYc" version="21.1.1" type="device">
  <diagram name="Page-1" id="nKC2hRawaoHiGWS2uSNb">
    <mxGraphModel dx="2187" dy="751" grid="1" gridSize="10" guides="1" tooltips="1" connect="1" arrows="1" fold="1" page="1" pageScale="1" pageWidth="827" pageHeight="1169" math="0" shadow="0">
      <root>
        <mxCell id="0" />
        <mxCell id="1" parent="0" />
        <mxCell id="mvx52Jp6LdSX16bdEBGP-12" style="rounded=0;orthogonalLoop=1;jettySize=auto;html=1;exitX=0;exitY=1;exitDx=0;exitDy=0;exitPerimeter=0;" parent="1" source="mvx52Jp6LdSX16bdEBGP-1" target="mvx52Jp6LdSX16bdEBGP-9" edge="1">
          <mxGeometry relative="1" as="geometry" />
        </mxCell>
        <mxCell id="mvx52Jp6LdSX16bdEBGP-13" style="rounded=0;orthogonalLoop=1;jettySize=auto;html=1;exitX=1;exitY=1;exitDx=0;exitDy=0;exitPerimeter=0;" parent="1" source="mvx52Jp6LdSX16bdEBGP-1" target="mvx52Jp6LdSX16bdEBGP-10" edge="1">
          <mxGeometry relative="1" as="geometry" />
        </mxCell>
        <mxCell id="mvx52Jp6LdSX16bdEBGP-14" style="rounded=0;orthogonalLoop=1;jettySize=auto;html=1;entryX=0.042;entryY=0.325;entryDx=0;entryDy=0;entryPerimeter=0;" parent="1" source="mvx52Jp6LdSX16bdEBGP-1" target="mvx52Jp6LdSX16bdEBGP-8" edge="1">
          <mxGeometry relative="1" as="geometry" />
        </mxCell>
        <mxCell id="mvx52Jp6LdSX16bdEBGP-15" style="rounded=0;orthogonalLoop=1;jettySize=auto;html=1;exitX=0.5;exitY=0;exitDx=0;exitDy=0;exitPerimeter=0;entryX=0.05;entryY=0.313;entryDx=0;entryDy=0;entryPerimeter=0;" parent="1" source="mvx52Jp6LdSX16bdEBGP-1" target="mvx52Jp6LdSX16bdEBGP-7" edge="1">
          <mxGeometry relative="1" as="geometry" />
        </mxCell>
        <mxCell id="mvx52Jp6LdSX16bdEBGP-1" value="Client" style="shape=umlActor;verticalLabelPosition=bottom;verticalAlign=top;html=1;outlineConnect=0;" parent="1" vertex="1">
          <mxGeometry x="105" y="110" width="30" height="60" as="geometry" />
        </mxCell>
        <mxCell id="mvx52Jp6LdSX16bdEBGP-16" style="rounded=0;orthogonalLoop=1;jettySize=auto;html=1;exitX=0.25;exitY=0.1;exitDx=0;exitDy=0;exitPerimeter=0;" parent="1" source="mvx52Jp6LdSX16bdEBGP-4" target="mvx52Jp6LdSX16bdEBGP-6" edge="1">
          <mxGeometry relative="1" as="geometry" />
        </mxCell>
        <mxCell id="mvx52Jp6LdSX16bdEBGP-17" style="edgeStyle=orthogonalEdgeStyle;rounded=0;orthogonalLoop=1;jettySize=auto;html=1;exitX=0.5;exitY=0.5;exitDx=0;exitDy=0;exitPerimeter=0;" parent="1" source="mvx52Jp6LdSX16bdEBGP-4" target="mvx52Jp6LdSX16bdEBGP-5" edge="1">
          <mxGeometry relative="1" as="geometry" />
        </mxCell>
        <mxCell id="jdKJyRVEshSO0HLdhIhg-7" style="rounded=0;orthogonalLoop=1;jettySize=auto;html=1;entryX=0;entryY=1;entryDx=0;entryDy=0;exitX=0.75;exitY=0.1;exitDx=0;exitDy=0;exitPerimeter=0;" parent="1" source="mvx52Jp6LdSX16bdEBGP-4" target="jdKJyRVEshSO0HLdhIhg-6" edge="1">
          <mxGeometry relative="1" as="geometry">
            <mxPoint x="670" y="590" as="sourcePoint" />
          </mxGeometry>
        </mxCell>
        <mxCell id="jdKJyRVEshSO0HLdhIhg-9" style="rounded=0;orthogonalLoop=1;jettySize=auto;html=1;entryX=0;entryY=0.5;entryDx=0;entryDy=0;exitX=0.5;exitY=0.5;exitDx=0;exitDy=0;exitPerimeter=0;" parent="1" source="mvx52Jp6LdSX16bdEBGP-4" target="jdKJyRVEshSO0HLdhIhg-8" edge="1">
          <mxGeometry relative="1" as="geometry" />
        </mxCell>
        <mxCell id="mvx52Jp6LdSX16bdEBGP-4" value="Equipe relation/fournisseur" style="shape=umlActor;verticalLabelPosition=bottom;verticalAlign=top;html=1;outlineConnect=0;" parent="1" vertex="1">
          <mxGeometry x="640" y="580" width="30" height="60" as="geometry" />
        </mxCell>
        <mxCell id="mvx52Jp6LdSX16bdEBGP-5" value="Visualisation des commandes" style="ellipse;whiteSpace=wrap;html=1;" parent="1" vertex="1">
          <mxGeometry x="400" y="570" width="120" height="80" as="geometry" />
        </mxCell>
        <mxCell id="mvx52Jp6LdSX16bdEBGP-6" value="Ajouts/Suppression de produits" style="ellipse;whiteSpace=wrap;html=1;" parent="1" vertex="1">
          <mxGeometry x="460" y="450" width="120" height="80" as="geometry" />
        </mxCell>
        <mxCell id="mvx52Jp6LdSX16bdEBGP-7" value="Consultation du catalogue" style="ellipse;whiteSpace=wrap;html=1;" parent="1" vertex="1">
          <mxGeometry x="354" y="40" width="120" height="80" as="geometry" />
        </mxCell>
        <mxCell id="mvx52Jp6LdSX16bdEBGP-8" value="Inscription" style="ellipse;whiteSpace=wrap;html=1;" parent="1" vertex="1">
          <mxGeometry x="360" y="190" width="120" height="80" as="geometry" />
        </mxCell>
        <mxCell id="jdKJyRVEshSO0HLdhIhg-5" value="" style="rounded=0;orthogonalLoop=1;jettySize=auto;html=1;" parent="1" source="mvx52Jp6LdSX16bdEBGP-9" target="jdKJyRVEshSO0HLdhIhg-4" edge="1">
          <mxGeometry relative="1" as="geometry" />
        </mxCell>
        <mxCell id="XuHZYy7bjZ2x4qxbibcl-2" style="edgeStyle=none;rounded=0;orthogonalLoop=1;jettySize=auto;html=1;entryX=0.5;entryY=0;entryDx=0;entryDy=0;" edge="1" parent="1" source="mvx52Jp6LdSX16bdEBGP-9" target="XuHZYy7bjZ2x4qxbibcl-1">
          <mxGeometry relative="1" as="geometry" />
        </mxCell>
        <mxCell id="mvx52Jp6LdSX16bdEBGP-9" value="&lt;div&gt;Connexion&lt;/div&gt;&lt;div&gt;Déconnexion&lt;/div&gt;" style="ellipse;whiteSpace=wrap;html=1;" parent="1" vertex="1">
          <mxGeometry x="-50" y="220" width="120" height="80" as="geometry" />
        </mxCell>
        <mxCell id="mvx52Jp6LdSX16bdEBGP-10" value="Validation du panier" style="ellipse;whiteSpace=wrap;html=1;" parent="1" vertex="1">
          <mxGeometry x="180" y="350" width="120" height="80" as="geometry" />
        </mxCell>
        <mxCell id="jdKJyRVEshSO0HLdhIhg-1" value="Ajout/Suppression panier" style="ellipse;whiteSpace=wrap;html=1;" parent="1" vertex="1">
          <mxGeometry x="360" y="330" width="120" height="80" as="geometry" />
        </mxCell>
        <mxCell id="jdKJyRVEshSO0HLdhIhg-3" value="" style="endArrow=classic;html=1;rounded=0;exitX=0.5;exitY=0.5;exitDx=0;exitDy=0;exitPerimeter=0;entryX=0.45;entryY=-0.012;entryDx=0;entryDy=0;entryPerimeter=0;" parent="1" source="mvx52Jp6LdSX16bdEBGP-1" target="jdKJyRVEshSO0HLdhIhg-1" edge="1">
          <mxGeometry width="50" height="50" relative="1" as="geometry">
            <mxPoint x="390" y="410" as="sourcePoint" />
            <mxPoint x="-50" y="170" as="targetPoint" />
          </mxGeometry>
        </mxCell>
        <mxCell id="jdKJyRVEshSO0HLdhIhg-4" value="Consulter profil" style="ellipse;whiteSpace=wrap;html=1;" parent="1" vertex="1">
          <mxGeometry x="15" y="370" width="120" height="80" as="geometry" />
        </mxCell>
        <mxCell id="jdKJyRVEshSO0HLdhIhg-6" value="Modifier arborescence" style="ellipse;whiteSpace=wrap;html=1;" parent="1" vertex="1">
          <mxGeometry x="740" y="450" width="120" height="80" as="geometry" />
        </mxCell>
        <mxCell id="jdKJyRVEshSO0HLdhIhg-8" value="Modifier caractéristiques" style="ellipse;whiteSpace=wrap;html=1;" parent="1" vertex="1">
          <mxGeometry x="790" y="570" width="120" height="80" as="geometry" />
        </mxCell>
        <mxCell id="jdKJyRVEshSO0HLdhIhg-18" style="rounded=0;orthogonalLoop=1;jettySize=auto;html=1;entryX=0.5;entryY=0;entryDx=0;entryDy=0;" parent="1" source="jdKJyRVEshSO0HLdhIhg-10" target="jdKJyRVEshSO0HLdhIhg-17" edge="1">
          <mxGeometry relative="1" as="geometry" />
        </mxCell>
        <mxCell id="jdKJyRVEshSO0HLdhIhg-10" value="Client Pro" style="shape=umlActor;verticalLabelPosition=bottom;verticalAlign=top;html=1;outlineConnect=0;" parent="1" vertex="1">
          <mxGeometry x="-210" y="110" width="30" height="60" as="geometry" />
        </mxCell>
        <mxCell id="jdKJyRVEshSO0HLdhIhg-15" style="rounded=0;orthogonalLoop=1;jettySize=auto;html=1;exitX=0.5;exitY=0.5;exitDx=0;exitDy=0;exitPerimeter=0;entryX=1;entryY=0.333;entryDx=0;entryDy=0;entryPerimeter=0;" parent="1" source="mvx52Jp6LdSX16bdEBGP-1" target="jdKJyRVEshSO0HLdhIhg-10" edge="1">
          <mxGeometry relative="1" as="geometry">
            <mxPoint x="-20" y="140" as="targetPoint" />
          </mxGeometry>
        </mxCell>
        <mxCell id="jdKJyRVEshSO0HLdhIhg-17" value="Validation du panier avec réduction" style="ellipse;whiteSpace=wrap;html=1;" parent="1" vertex="1">
          <mxGeometry x="-325" y="280" width="120" height="80" as="geometry" />
        </mxCell>
        <mxCell id="jdKJyRVEshSO0HLdhIhg-19" value="Commercial" style="shape=umlActor;verticalLabelPosition=bottom;verticalAlign=top;html=1;outlineConnect=0;" parent="1" vertex="1">
          <mxGeometry x="-280" y="470" width="30" height="60" as="geometry" />
        </mxCell>
        <mxCell id="jdKJyRVEshSO0HLdhIhg-20" value="" style="endArrow=classic;html=1;rounded=0;exitX=0.5;exitY=0;exitDx=0;exitDy=0;exitPerimeter=0;entryX=0.5;entryY=1;entryDx=0;entryDy=0;" parent="1" source="jdKJyRVEshSO0HLdhIhg-19" target="jdKJyRVEshSO0HLdhIhg-17" edge="1">
          <mxGeometry width="50" height="50" relative="1" as="geometry">
            <mxPoint x="100" y="570" as="sourcePoint" />
            <mxPoint x="150" y="520" as="targetPoint" />
          </mxGeometry>
        </mxCell>
        <mxCell id="XuHZYy7bjZ2x4qxbibcl-1" value="Consulter commandes" style="ellipse;whiteSpace=wrap;html=1;" vertex="1" parent="1">
          <mxGeometry x="-140" y="370" width="120" height="80" as="geometry" />
        </mxCell>
      </root>
    </mxGraphModel>
  </diagram>
</mxfile>
